<?xml version="1.0" encoding="UTF-8"?>
<svg width="15px" height="24px" viewBox="0 0 15 24" version="1.1" xmlns="http://www.w3.org/2000/svg" xmlns:xlink="http://www.w3.org/1999/xlink">
    <!-- Generator: Sketch 50.2 (55047) - http://www.bohemiancoding.com/sketch -->
    <title>lv1/icon/primary-arrow-right</title>
    <desc>Created with Sketch.</desc>
    <defs></defs>
    <g id="Symbols" stroke="none" stroke-width="1" fill="none" fill-rule="evenodd">
        <g id="lv2/btn/icon-primary-lg" transform="translate(-442.000000, -28.000000)" fill="#FFFFFF">
            <g id="lv1/icon/white-arrow-right" transform="translate(437.000000, 28.000000)">
                <g id="014-right-arrow" transform="translate(5.000000, 0.000000)">
                    <path d="M13.7839749,11.0635198 L3.05149362,0.383411517 C2.80326443,0.136194015 2.47190002,0 2.11857538,0 C1.76525073,0 1.43388632,0.136194015 1.18565713,0.383411517 L0.395284402,1.16974659 C-0.119016682,1.68213267 -0.119016682,2.51490638 0.395284402,3.02651198 L9.4076119,11.9950244 L0.385284647,20.973488 C0.137055455,21.2207055 0,21.5502638 0,21.9016756 C0,22.2534776 0.137055455,22.5830359 0.385284647,22.8304485 L1.17565738,23.6165885 C1.42408264,23.863806 1.75525097,24 2.10857562,24 C2.46190027,24 2.79326467,23.863806 3.04149387,23.6165885 L13.7839749,12.9267242 C14.0327923,12.6787262 14.1694556,12.3476069 14.1686713,11.9956098 C14.1694556,11.6422468 14.0327923,11.3113227 13.7839749,11.0635198 Z" id="Shape" fill-rule="nonzero"></path>
                </g>
            </g>
        </g>
    </g>
</svg>