<?xml version="1.0" encoding="UTF-8"?>
<svg width="40px" height="40px" viewBox="0 0 40 40" version="1.1" xmlns="http://www.w3.org/2000/svg" xmlns:xlink="http://www.w3.org/1999/xlink">
    <!-- Generator: Sketch 50.2 (55047) - http://www.bohemiancoding.com/sketch -->
    <title>lv1/icon/primary-simulation</title>
    <desc>Created with Sketch.</desc>
    <defs></defs>
    <g id="Symbols" stroke="none" stroke-width="1" fill="none" fill-rule="evenodd">
        <g id="lv2/btn/icon-primary-lg" transform="translate(-20.000000, -20.000000)" fill="#FFFFFF">
            <g id="lv1/icon/white-contact" transform="translate(20.000000, 20.000000)">
                <g id="016-document">
                    <path d="M30.4307031,6.82984375 C30.4307031,5.89140625 30.0644531,5.00796875 29.4007031,4.34421875 L26.0864844,1.03 C25.4319531,0.375390625 24.5028125,0 23.578125,0 L23.3767188,0 L23.3767188,7.03125 L30.4307813,7.03125 L30.4307031,6.82984375 Z" id="Shape" fill-rule="nonzero"></path>
                    <path d="M21.4013281,24.1825781 C21.625625,23.5016406 22.0170313,22.8676562 22.5274219,22.3538281 L30.4619531,14.45125 L30.4619531,9.375 L22.2275781,9.375 C21.5798438,9.375 21.09375,8.85085937 21.09375,8.203125 L21.09375,0 L3.515625,0 C1.57703125,0 0,1.57703125 0,3.515625 L0,36.484375 C0,38.4229688 1.57703125,40 3.515625,40 L26.9150781,40 C28.8536719,40 30.4619531,38.4229688 30.4619531,36.484375 L30.4619531,27.7382031 L29.1741406,28.9947656 C28.6523438,29.5120312 28.04125,29.8885156 27.3522656,30.1185937 L23.6260938,31.3625781 L23.0584375,31.3935156 C22.12,31.3935156 21.2319531,30.936875 20.6803906,30.1724219 C20.1333594,29.4114062 19.9846094,28.4249219 20.2821094,27.5334375 L21.4013281,24.1825781 Z M5.859375,21.09375 L17.5400781,21.09375 C18.1878125,21.09375 18.7119531,21.6178906 18.7119531,22.265625 C18.7119531,22.9133594 18.1878125,23.4375 17.5400781,23.4375 L5.859375,23.4375 C5.21164063,23.4375 4.6875,22.9133594 4.6875,22.265625 C4.6875,21.6178906 5.21164063,21.09375 5.859375,21.09375 Z M4.6875,17.578125 C4.6875,16.9303906 5.21164063,16.40625 5.859375,16.40625 L17.5400781,16.40625 C18.1878125,16.40625 18.7119531,16.9303906 18.7119531,17.578125 C18.7119531,18.2258594 18.1878125,18.75 17.5400781,18.75 L5.859375,18.75 C5.21164063,18.75 4.6875,18.2258594 4.6875,17.578125 Z M4.6875,26.953125 C4.6875,26.3053906 5.21164063,25.78125 5.859375,25.78125 L17.5400781,25.78125 C18.1878125,25.78125 18.7119531,26.3053906 18.7119531,26.953125 C18.7119531,27.6008594 18.1878125,28.125 17.5400781,28.125 L5.859375,28.125 C5.21164063,28.125 4.6875,27.6008594 4.6875,26.953125 Z M22.2275781,32.8125 C22.8753125,32.8125 23.3994531,33.3366406 23.3994531,33.984375 C23.3994531,34.6321094 22.8753906,35.15625 22.2275781,35.15625 L15.1963281,35.15625 C14.5485938,35.15625 14.0244531,34.6321094 14.0244531,33.984375 C14.0244531,33.3366406 14.5485938,32.8125 15.1963281,32.8125 L22.2275781,32.8125 Z M5.859375,14.0625 C5.21164063,14.0625 4.6875,13.5383594 4.6875,12.890625 C4.6875,12.2428906 5.21164063,11.71875 5.859375,11.71875 L22.2275781,11.71875 C22.8753125,11.71875 23.3994531,12.2428906 23.3994531,12.890625 C23.3994531,13.5383594 22.8753125,14.0625 22.2275781,14.0625 L5.859375,14.0625 Z" id="Shape" fill-rule="nonzero"></path>
                    <path d="M23.5242969,25.219375 L22.5047656,28.2780469 C22.3519531,28.73625 22.7879687,29.1721094 23.2461719,29.0190625 L26.3030469,27.998125 L23.5242969,25.219375 Z" id="Shape" fill-rule="nonzero"></path>
                    <path d="M32.6257031,15.5708594 L24.9078125,23.28875 L28.2363281,26.6172656 C29.9807031,24.8725781 33.3748438,21.4779688 35.9538281,18.8989844 L32.6257031,15.5708594 Z" id="Shape" fill-rule="nonzero"></path>
                    <path d="M39.3113281,12.2096875 C38.899375,11.7953906 38.2928125,11.5585156 37.6496094,11.5585156 C37.0064063,11.5585156 36.3999219,11.7953906 35.985625,12.2108594 L34.2827344,13.91375 L37.6107031,17.2417187 C38.5429688,16.309375 39.1873438,15.665 39.31375,15.5386719 C40.2291406,14.621875 40.2290625,13.1285937 39.3113281,12.2096875 Z" id="Shape" fill-rule="nonzero"></path>
                    <g id="Group" transform="translate(39.296875, 15.468750)" fill-rule="nonzero">
                        <path d="M0.0895833333,0.380666667 C0.0900833333,0.380666667 0.0900833333,0.380166667 0.0905833333,0.379666667 C0.109583333,0.360666667 0.118083333,0.352166667 0.133583333,0.336666667 C0.118083333,0.352666667 0.109583333,0.361166667 0.0895833333,0.380666667 Z" id="Shape"></path>
                        <path d="M0.12625,0.34775 C0.15025,0.32375 0.17825,0.29575 0.19275,0.28125 C0.17775,0.29625 0.15025,0.32375 0.12625,0.34775 Z" id="Shape"></path>
                        <path d="M0.181666667,0.287375159 C0.230166667,0.238875159 0.231166667,0.237875159 0.181666667,0.287375159 Z" id="Shape"></path>
                    </g>
                </g>
            </g>
        </g>
    </g>
</svg>