<?xml version="1.0" encoding="UTF-8"?>
<svg width="31px" height="40px" viewBox="0 0 31 40" version="1.1" xmlns="http://www.w3.org/2000/svg" xmlns:xlink="http://www.w3.org/1999/xlink">
    <!-- Generator: Sketch 50.2 (55047) - http://www.bohemiancoding.com/sketch -->
    <title>lv1/icon/primary-simulation</title>
    <desc>Created with Sketch.</desc>
    <defs></defs>
    <g id="Symbols" stroke="none" stroke-width="1" fill="none" fill-rule="evenodd">
        <g id="lv2/btn/icon-primary-lg" transform="translate(-25.000000, -20.000000)" fill="#FFFFFF">
            <g id="lv1/icon/white-simulation" transform="translate(20.000000, 20.000000)">
                <g id="017-calculator" transform="translate(5.000000, 0.000000)">
                    <path d="M28.77,0 L2.065,0 C1.08166667,0 0.285,0.7975 0.285,1.78083333 L0.285,37.3866667 C0.285,38.37 1.0825,39.1675 2.065,39.1675 L28.77,39.1675 C29.7533333,39.1675 30.55,38.37 30.55,37.3866667 L30.55,1.78083333 C30.55,0.7975 29.7533333,0 28.77,0 Z M26.9891667,3.56 L26.9891667,8.90083333 L3.845,8.90083333 L3.845,3.56 L26.9891667,3.56 Z M3.845,35.6075 L3.845,12.4616667 L26.9891667,12.4616667 L26.9891667,35.605 L3.845,35.605 L3.845,35.6075 Z" id="Shape" fill-rule="nonzero"></path>
                    <path d="M10.2108333,14.0366667 L6.515,14.0366667 C6.02333333,14.0366667 5.625,14.4358333 5.625,14.9266667 L5.625,18.625 C5.625,19.1166667 6.02416667,19.515 6.515,19.515 L10.2108333,19.515 C10.7025,19.515 11.1008333,19.1158333 11.1008333,18.625 L11.1008333,14.9266667 C11.1016667,14.4341667 10.7041667,14.0366667 10.2108333,14.0366667 Z" id="Shape" fill-rule="nonzero"></path>
                    <path d="M17.2641667,14.0366667 L13.5691667,14.0366667 C13.0775,14.0366667 12.6791667,14.4358333 12.6791667,14.9266667 L12.6791667,18.625 C12.6791667,19.1166667 13.0775,19.515 13.5691667,19.515 L17.2641667,19.515 C17.7558333,19.515 18.1541667,19.1158333 18.1541667,18.625 L18.1541667,14.9266667 C18.155,14.4341667 17.7558333,14.0366667 17.2641667,14.0366667 Z" id="Shape" fill-rule="nonzero"></path>
                    <path d="M24.3183333,14.0366667 L20.6225,14.0366667 C20.1308333,14.0366667 19.7333333,14.4358333 19.7333333,14.9266667 L19.7333333,18.625 C19.7333333,19.1166667 20.1316667,19.515 20.6225,19.515 L24.3183333,19.515 C24.81,19.515 25.2083333,19.1158333 25.2083333,18.625 L25.2083333,14.9266667 C25.2083333,14.4341667 24.81,14.0366667 24.3183333,14.0366667 Z" id="Shape" fill-rule="nonzero"></path>
                    <path d="M10.2108333,21.2958333 L6.515,21.2958333 C6.02333333,21.2958333 5.625,21.6941667 5.625,22.185 L5.625,25.8833333 C5.625,26.375 6.02416667,26.7725 6.515,26.7725 L10.2108333,26.7725 C10.7025,26.7725 11.1008333,26.3741667 11.1008333,25.8833333 L11.1008333,22.185 C11.1016667,21.6925 10.7041667,21.2958333 10.2108333,21.2958333 Z" id="Shape" fill-rule="nonzero"></path>
                    <path d="M17.2641667,21.2958333 L13.5691667,21.2958333 C13.0775,21.2958333 12.6791667,21.6941667 12.6791667,22.185 L12.6791667,25.8833333 C12.6791667,26.375 13.0775,26.7725 13.5691667,26.7725 L17.2641667,26.7725 C17.7558333,26.7725 18.1541667,26.3741667 18.1541667,25.8833333 L18.1541667,22.185 C18.155,21.6925 17.7558333,21.2958333 17.2641667,21.2958333 Z" id="Shape" fill-rule="nonzero"></path>
                    <path d="M10.2108333,28.555 L6.515,28.555 C6.02333333,28.555 5.625,28.9533333 5.625,29.4433333 L5.625,33.1416667 C5.625,33.635 6.02416667,34.0316667 6.515,34.0316667 L10.2108333,34.0316667 C10.7025,34.0316667 11.1008333,33.6325 11.1008333,33.1416667 L11.1008333,29.4433333 C11.1016667,28.9516667 10.7041667,28.555 10.2108333,28.555 Z" id="Shape" fill-rule="nonzero"></path>
                    <path d="M17.2641667,28.555 L13.5691667,28.555 C13.0775,28.555 12.6791667,28.9533333 12.6791667,29.4433333 L12.6791667,33.1416667 C12.6791667,33.635 13.0775,34.0316667 13.5691667,34.0316667 L17.2641667,34.0316667 C17.7558333,34.0316667 18.1541667,33.6325 18.1541667,33.1416667 L18.1541667,29.4433333 C18.155,28.9516667 17.7558333,28.555 17.2641667,28.555 Z" id="Shape" fill-rule="nonzero"></path>
                    <path d="M24.3183333,21.2958333 L20.6225,21.2958333 C20.1308333,21.2958333 19.7333333,21.6941667 19.7333333,22.185 L19.7333333,33.1416667 C19.7333333,33.635 20.1316667,34.0316667 20.6225,34.0316667 L24.3183333,34.0316667 C24.81,34.0316667 25.2083333,33.6325 25.2083333,33.1416667 L25.2083333,22.185 C25.2083333,21.6925 24.81,21.2958333 24.3183333,21.2958333 Z" id="Shape" fill-rule="nonzero"></path>
                </g>
            </g>
        </g>
    </g>
</svg>