<?xml version="1.0" encoding="UTF-8"?>
<svg width="29px" height="24px" viewBox="0 0 29 24" version="1.1" xmlns="http://www.w3.org/2000/svg" xmlns:xlink="http://www.w3.org/1999/xlink">
    <!-- Generator: Sketch 50.2 (55047) - http://www.bohemiancoding.com/sketch -->
    <title>Combined Shape Copy</title>
    <desc>Created with Sketch.</desc>
    <defs></defs>
    <g id="Main" stroke="none" stroke-width="1" fill="none" fill-rule="evenodd">
        <g id="Camp-simulation" transform="translate(-581.000000, -4441.000000)" fill="#777777">
            <g id="Total" transform="translate(0.000000, 4322.000000)">
                <g id="Group-55" transform="translate(340.000000, 60.000000)">
                    <path d="M243.603682,59.4385791 L254.30126,69.9411765 C254.896889,70.5259486 254.896889,71.4740514 254.30126,72.0588235 L243.603682,82.5614209 C243.008054,83.146193 242.04235,83.146193 241.446721,82.5614209 C241.16069,82.2806035 241,81.8997333 241,81.5025974 L241,60.4974026 C241,59.67041 241.682856,59 242.525202,59 C242.929711,59 243.317652,59.1577616 243.603682,59.4385791 Z M258.855701,59.4385791 L269.553279,69.9411765 C270.148907,70.5259486 270.148907,71.4740514 269.553279,72.0588235 L258.855701,82.5614209 C258.260072,83.146193 257.294368,83.146193 256.69874,82.5614209 C256.412709,82.2806035 256.252018,81.8997333 256.252018,81.5025974 L256.252018,60.4974026 C256.252018,59.67041 256.934875,59 257.77722,59 C258.181729,59 258.56967,59.1577616 258.855701,59.4385791 Z" id="Combined-Shape-Copy"></path>
                </g>
            </g>
        </g>
    </g>
</svg>